:SAMPLES-PER-SECOND 30
:FRAME-RANGE 1-3535
:FULLY-SPECIFIED
:DEGREES
884
root  -8.79571 40.0403 -6.40627 1.33026 25.7745 -4.44982
RightUpLeg  -17.3044 14.6039 2.75528
RightLeg  10.6841 11.6651 1.68258
RightFoot  0.361129 -1.04446 10.1906
RightToes  5.38503e-012 1.26228e-014 -6.01869e-014
Spine  0.528077 -5.22193 -18.8165
Spine1  2.80923 -6.28146 5.96135
HEad  10.8174 -33.8509 14.0728
LeftShoulder1  1.56611 -2.49935 -20.8264
LeftArm  15.9364 3.31108 -38.104
LeftForeArm  29.5206 -8.38776 -13.1151
LeftHand  -0.0397904 5.0692 6.99113
RightShoulder  0.751249 -0.860218 24.3989
RightArm  -20.7293 -5.51504 53.8672
RightForeArm  65.6099 4.92625 7.53187
RightHand  0.180909 -6.54736 -19.3457
LeftUpLeg  -8.07394 6.47344 4.43111
LeftLeg  13.2268 -5.28822 -1.04011
LeftFoot  -7.3115 0.0152109 0.817918
LeftToes  8.9788e-011 3.29689e-010 2.1201e-011
885
root  -8.99074 39.9717 -6.63534 1.42749 23.0383 -4.04223
RightUpLeg  -17.1872 16.0234 2.09778
RightLeg  13.2599 7.14001 1.71928
RightFoot  -3.16522 -0.601587 8.10126
RightToes  5.38503e-012 1.26228e-014 -6.01869e-014
Spine  0.378459 -5.16791 -18.8206
Spine1  2.85924 -6.38008 6.51565
HEad  12.523 -34.1805 13.4436
LeftShoulder1  1.60228 -2.70066 -20.5042
LeftArm  18.7033 1.77824 -39.951
LeftForeArm  27.3677 -9.6717 -12.7821
LeftHand  -0.0304112 5.2392 7.4524
RightShoulder  0.76356 -0.837893 24.6374
RightArm  -20.1295 -3.60598 54.2554
RightForeArm  65.0551 5.52989 7.76419
RightHand  0.112762 -6.12832 -19.5214
LeftUpLeg  -8.24655 6.41457 4.11185
LeftLeg  13.7371 -2.72475 -0.257707
LeftFoot  -7.56589 0.0324355 0.396381
LeftToes  8.9788e-011 3.29689e-010 2.1201e-011
886
root  -9.15623 39.9109 -6.81372 1.58295 20.1723 -3.43015
RightUpLeg  -16.4203 15.8499 1.73891
RightLeg  16.0352 2.79138 0.710377
RightFoot  -6.22116 -0.345546 6.77217
RightToes  5.38503e-012 1.26228e-014 -6.01869e-014
Spine  -0.325247 -5.16363 -18.6404
Spine1  3.42745 -6.43786 6.65381
HEad  14.2555 -34.6351 12.7983
LeftShoulder1  1.61886 -2.82896 -20.1967
LeftArm  18.8485 0.409148 -41.9578
LeftForeArm  27.6608 -9.8917 -12.6533
LeftHand  -0.041536 5.0434 7.14623
RightShoulder  0.766881 -0.849201 24.9306
RightArm  -20.5311 -1.71471 54.8311
RightForeArm  66.1401 5.28668 7.42651
RightHand  0.0785057 -5.93941 -19.0749
LeftUpLeg  -8.24065 6.60745 3.77942
LeftLeg  14.1222 -0.112829 0.222959
LeftFoot  -7.7144 0.0497926 -0.107934
LeftToes  8.9788e-011 3.29689e-010 2.1201e-011
887
root  -9.29843 39.8607 -6.96728 1.94559 17.3478 -2.60652
RightUpLeg  -15.4721 13.2029 0.988771
RightLeg  18.6894 -0.476518 -0.380445
RightFoot  -9.1268 -0.17872 6.02982
RightToes  5.38503e-012 1.26228e-014 -6.01869e-014
Spine  -1.12205 -5.23944 -18.3387
Spine1  3.79729 -6.53603 6.69061
HEad  15.977 -35.0545 12.0394
LeftShoulder1  1.62972 -2.8877 -20.1166
LeftArm  18.2774 -0.59669 -43.9687
LeftForeArm  28.5497 -9.74827 -12.6427
LeftHand  -0.0788997 4.25017 6.25294
RightShoulder  0.774835 -0.836261 25.1007
RightArm  -21.7235 -0.192205 55.5938
RightForeArm  66.916 4.17238 6.65769
RightHand  0.0782397 -5.94182 -18.9639
LeftUpLeg  -8.2717 6.42937 3.08586
LeftLeg  14.2608 2.78344 0.96188
LeftFoot  -7.7069 0.0785173 -1.01535
LeftToes  8.9788e-011 3.29689e-010 2.1201e-011
888
root  -9.41979 39.8532 -7.07801 2.14993 14.1264 -2.05683
RightUpLeg  -13.9692 9.24649 0.0650829
RightLeg  20.1223 -2.93073 -1.39221
RightFoot  -9.87249 -0.146371 6.17644
RightToes  5.38503e-012 1.26228e-014 -6.01869e-014
Spine  -2.17395 -5.07671 -17.3329
Spine1  4.35936 -6.39083 6.67865
HEad  17.3958 -35.4113 11.0387
LeftShoulder1  1.66093 -3.01199 -20.0917
LeftArm  16.9801 -1.63175 -46.2617
LeftForeArm  29.8255 -8.69876 -13.0344
LeftHand  -0.0758094 4.36678 6.58899
RightShoulder  0.77727 -0.832864 25.1599
RightArm  -22.6201 0.568951 56.0512
RightForeArm  66.855 3.42013 6.1115
RightHand  0.0987633 -6.05968 -19.1632
LeftUpLeg  -7.95538 6.44181 2.72094
LeftLeg  14.0857 5.86905 1.63281
LeftFoot  -7.56077 0.0990952 -1.62663
LeftToes  8.9788e-011 3.29689e-010 2.1201e-011
889
root  -9.52187 39.8368 -7.10713 2.28821 10.6253 -1.43193
RightUpLeg  -12.3594 5.94125 -1.73242
RightLeg  21.0913 -4.46331 -2.10236
RightFoot  -11.3332 -0.0774149 5.93243
RightToes  5.38503e-012 1.26228e-014 -6.01869e-014
Spine  -3.65121 -4.83762 -16.1054
Spine1  5.39842 -6.14722 6.49411
HEad  18.1267 -35.4338 10.1148
LeftShoulder1  1.66265 -3.02704 -20.0539
LeftArm  16.1684 -2.38245 -48.8182
LeftForeArm  30.9859 -7.82994 -13.3363
LeftHand  -0.0791822 4.4031 6.44917
RightShoulder  0.775015 -0.844042 25.2124
RightArm  -22.8807 0.80401 56.0485
RightForeArm  66.673 2.97692 5.92717
RightHand  0.0762347 -5.91616 -19.3419
LeftUpLeg  -7.34763 6.61552 2.36556
LeftLeg  13.8446 9.03908 2.10828
LeftFoot  -7.54584 0.119779 -2.24765
LeftToes  8.9788e-011 3.29689e-010 2.1201e-011
890
root  -9.64666 39.7963 -7.09447 2.44516 7.02582 -0.705938
RightUpLeg  -10.9114 2.82875 -4.23248
RightLeg  21.523 -4.95378 -2.35491
RightFoot  -12.0717 -0.0454787 5.72157
RightToes  5.38503e-012 1.26228e-014 -6.01869e-014
Spine  -5.08245 -4.69224 -15.0831
Spine1  6.4136 -6.06042 6.51103
HEad  18.3765 -34.5034 9.00336
LeftShoulder1  1.65215 -2.98119 -20.0799
LeftArm  17.5766 -2.37043 -51.1536
LeftForeArm  30.0278 -8.3799 -13.229
LeftHand  -0.0841206 4.32111 6.12404
RightShoulder  0.776308 -0.858168 25.4587
RightArm  -22.7304 0.977333 55.4005
RightForeArm  66.6769 2.61876 5.91928
RightHand  0.0528236 -5.78131 -19.1034
LeftUpLeg  -6.80114 6.19996 1.59124
LeftLeg  13.7639 12.7664 3.31261
LeftFoot  -7.62993 0.154321 -3.34984
LeftToes  8.9788e-011 3.29689e-010 2.1201e-011
891
root  -9.83998 39.7319 -7.04913 2.59488 3.59372 0.00629371
RightUpLeg  -9.71655 -0.0541506 -7.07178
RightLeg  21.5037 -4.45848 -2.1393
RightFoot  -11.4771 -0.071344 5.5722
RightToes  5.38503e-012 1.26228e-014 -6.01869e-014
Spine  -6.07098 -4.72782 -14.4982
Spine1  7.03462 -6.26562 7.04328
HEad  18.6137 -32.2171 7.57501
LeftShoulder1  1.63865 -2.91506 -20.1465
LeftArm  20.3204 -1.63178 -52.9728
LeftForeArm  27.7306 -10.0801 -12.6295
LeftHand  -0.0861468 4.23434 5.89034
RightShoulder  0.712845 -1.09822 26.0271
RightArm  -22.7257 1.0275 54.4397
RightForeArm  66.5039 2.29776 5.86938
RightHand  0.0341663 -5.66867 -19.0335
LeftUpLeg  -6.37872 6.41297 1.25416
LeftLeg  13.961 15.6237 3.74375
LeftFoot  -8.02242 0.160542 -3.88007
LeftToes  8.9788e-011 3.29689e-010 2.1201e-011
892
root  -10.1522 39.5893 -6.98392 3.08105 0.806335 1.06041
RightUpLeg  -8.93246 -0.884008 -10.3909
RightLeg  20.7875 -2.92511 -1.43129
RightFoot  -10.2937 -0.155637 9.33714
RightToes  5.38503e-012 1.26228e-014 -6.01869e-014
Spine  -6.97482 -5.15274 -14.8318
Spine1  7.46172 -6.83971 7.82286
HEad  18.781 -27.7775 6.26063
LeftShoulder1  1.6505 -2.95699 -20.1606
LeftArm  23.7562 -0.555753 -54.1303
LeftForeArm  24.9502 -12.3734 -11.5321
LeftHand  -0.0876739 4.03359 5.59423
RightShoulder  0.631054 -1.39289 26.7067
RightArm  -23.2774 0.80822 53.4647
RightForeArm  65.7271 1.8293 5.58147
RightHand  0.0390017 -5.69268 -19.2837
LeftUpLeg  -6.83438 6.73045 0.793427
LeftLeg  15.1321 17.6426 4.06146
LeftFoot  -8.91431 0.141453 -4.15385
LeftToes  8.9788e-011 3.29689e-010 2.1201e-011
893
root  -10.5852 39.3551 -6.92888 3.75696 -0.996155 2.63607
RightUpLeg  -7.91951 -0.165644 -13.8537
RightLeg  18.126 3.67532 1.1454
RightFoot  -12.344 0.0523871 15.531
RightToes  5.38503e-012 1.26228e-014 -6.01869e-014
Spine  -7.46976 -5.91279 -16.2387
Spine1  7.46978 -7.6904 8.72283
HEad  18.6388 -21.649 5.52721
LeftShoulder1  1.64788 -2.93771 -20.2027
LeftArm  26.1442 0.259897 -54.6203
LeftForeArm  23.2033 -14.236 -10.3737
LeftHand  -0.0863482 3.86524 5.45251
RightShoulder  0.494338 -1.84286 27.4263
RightArm  -24.3526 0.230226 52.4821
RightForeArm  64.5365 1.10913 5.0357
RightHand  -0.0284832 -5.2837 -19.716
LeftUpLeg  -8.32211 6.88052 -0.183483
LeftLeg  17.5156 18.8681 4.87244
LeftFoot  -9.95803 0.119408 -4.94699
LeftToes  8.9788e-011 3.29689e-010 2.1201e-011
894
root  -11.077 39.2449 -6.9025 4.21359 -2.19586 3.35395
RightUpLeg  -7.22715 2.89003 -15.1546
RightLeg  15.8086 8.5514 2.53908
RightFoot  -14.6889 0.369271 15.9722
RightToes  5.38503e-012 1.26228e-014 -6.01869e-014
Spine  -7.00019 -6.31824 -16.5864
Spine1  6.79769 -8.23977 9.60401
HEad  18.3663 -14.3162 4.94814
LeftShoulder1  1.66914 -2.99003 -20.3298
LeftArm  25.6296 0.2333 -54.82
LeftForeArm  23.8955 -14.5248 -10.0811
LeftHand  -0.0868306 3.84422 5.28596
RightShoulder  0.386088 -2.19996 28.4508
RightArm  -24.9823 -0.795493 50.814
RightForeArm  61.7441 0.371283 4.76234
RightHand  -0.022233 -5.32048 -19.8285
LeftUpLeg  -9.27703 7.12461 -0.419333
LeftLeg  18.8613 19.449 5.87687
LeftFoot  -10.1804 0.12226 -6.04629
LeftToes  8.9788e-011 3.29689e-010 2.1201e-011
